<svg xmlns="http://www.w3.org/2000/svg" viewBox="0 0 900 620" width="900" height="620" role="img">
<defs>
<linearGradient id="bg" x1="0" y1="0" x2="1" y2="1">
<stop offset="0" stop-color="#66421f"/><stop offset="1" stop-color="#c9a063"/></linearGradient>
<radialGradient id="glow" cx="70%" cy="24%" r="64%">
<stop offset="0" stop-color="#ffe6b0" stop-opacity=".34"/>
<stop offset="1" stop-color="#ffe6b0" stop-opacity="0"/></radialGradient>
</defs>
<rect width="900" height="620" fill="url(#bg)"/>
<rect width="900" height="620" fill="url(#glow)"/>
<circle cx="800" cy="428" r="26" fill="#d9b85c" opacity="0.075"/><circle cx="815" cy="65" r="53" fill="#d9b85c" opacity="0.085"/><circle cx="560" cy="107" r="31" fill="#d9b85c" opacity="0.124"/><circle cx="356" cy="85" r="65" fill="#d9b85c" opacity="0.065"/><circle cx="93" cy="336" r="47" fill="#d9b85c" opacity="0.067"/><circle cx="27" cy="407" r="37" fill="#d9b85c" opacity="0.115"/><circle cx="379" cy="87" r="70" fill="#d9b85c" opacity="0.072"/><circle cx="638" cy="280" r="28" fill="#d9b85c" opacity="0.056"/><circle cx="360" cy="19" r="110" fill="#d9b85c" opacity="0.073"/><circle cx="568" cy="278" r="101" fill="#d9b85c" opacity="0.065"/><circle cx="349" cy="207" r="55" fill="#d9b85c" opacity="0.111"/><circle cx="361" cy="181" r="39" fill="#d9b85c" opacity="0.057"/>
<g fill="#f7f1e7" opacity="0.09"><rect x="-20" y="435" width="62.1" height="105" rx="3"/><rect x="66.1" y="345" width="85.05000000000001" height="195" rx="3"/><rect x="175.15" y="397.5" width="108" height="142.5" rx="3"/><rect x="307.15" y="277.5" width="76.95" height="262.5" rx="3"/><rect x="408.09999999999997" y="375" width="99.9" height="165" rx="3"/><rect x="532" y="315" width="68.85000000000001" height="225" rx="3"/><rect x="624.85" y="412.5" width="91.80000000000001" height="127.5" rx="3"/><rect x="740.6500000000001" y="240" width="114.75000000000001" height="300" rx="3"/><rect x="879.4000000000001" y="360" width="83.7" height="180" rx="3"/><rect x="-20" y="300" width="106.65" height="240" rx="3"/><rect x="110.65" y="405" width="75.60000000000001" height="135" rx="3"/><rect x="210.25" y="330" width="98.55000000000001" height="210" rx="3"/><rect x="332.8" y="382.5" width="67.5" height="157.5" rx="3"/><rect x="424.3" y="262.5" width="90.45" height="277.5" rx="3"/></g>
<rect x="0" y="554" width="900" height="66" fill="#2b1a0e" opacity=".85"/>
<g stroke="#d9b85c" stroke-width="5" stroke-linecap="round" opacity=".45" stroke-dasharray="46 34">
<line x1="0" y1="590" x2="900" y2="590"/></g>
<g transform="translate(230 130) scale(1.05)">
<rect x="0" y="40" width="420" height="230" rx="10" fill="#f7f1e7" opacity=".95"/>
<rect x="0" y="0" width="420" height="48" rx="8" fill="#4e3018"/>
<circle cx="210" cy="24" r="34" fill="#66421f" stroke="#c9a227" stroke-width="5"/>
<path d="M186 22c0-4 3-7 7-7h11l6 5 6-5h11c4 0 7 3 7 7v5c0 4-3 7-7 7h-9l-8 6-8-6h-9c-4 0-7-3-7-7z" fill="#d9b85c"/>
<g fill="#8a5a2b" opacity=".22">
<rect x="24" y="72" width="112" height="130" rx="6"/>
<rect x="154" y="72" width="112" height="130" rx="6"/>
<rect x="284" y="72" width="112" height="130" rx="6"/></g>
<g stroke="#66421f" stroke-width="4" opacity=".35">
<line x1="80" y1="72" x2="80" y2="202"/><line x1="210" y1="72" x2="210" y2="202"/>
<line x1="340" y1="72" x2="340" y2="202"/></g></g>
<g transform="translate(120 470) scale(1.15)" fill="#ffffff" opacity="0.9">
<path d="M4 50c0-7 6-9 14-11l22-17c6-5 13-7 20-7h44c8 0 15 3 21 8l17 15 20 4c8 2 12 5 12 11v5H4z"/>
<circle cx="46" cy="58" r="12"/><circle cx="132" cy="58" r="12"/></g>
<g transform="translate(640 470) scale(1.15)" fill="#f7f1e7" opacity="0.75">
<path d="M4 50c0-7 6-9 14-11l22-17c6-5 13-7 20-7h44c8 0 15 3 21 8l17 15 20 4c8 2 12 5 12 11v5H4z"/>
<circle cx="46" cy="58" r="12"/><circle cx="132" cy="58" r="12"/></g>
</svg>